<svg width="20" height="20" viewBox="0 0 20 20" fill="none" xmlns="http://www.w3.org/2000/svg">
<rect width="20" height="20" rx="10" fill="#19212A"/>
<path fill-rule="evenodd" clip-rule="evenodd" d="M6.57576 6.57613C6.81007 6.34181 7.18997 6.34181 7.42429 6.57613L10 9.15186L12.5758 6.57613C12.8101 6.34181 13.19 6.34181 13.4243 6.57613C13.6586 6.81044 13.6586 7.19034 13.4243 7.42465L10.8486 10.0004L13.4243 12.5761C13.6586 12.8104 13.6586 13.1903 13.4243 13.4247C13.19 13.659 12.8101 13.659 12.5758 13.4247L10 10.8489L7.42429 13.4247C7.18997 13.659 6.81007 13.659 6.57576 13.4247C6.34145 13.1903 6.34145 12.8104 6.57576 12.5761L9.1515 10.0004L6.57576 7.42465C6.34145 7.19034 6.34145 6.81044 6.57576 6.57613Z" fill="white"/>
</svg>
