<svg xmlns="http://www.w3.org/2000/svg" width="43" height="55" viewBox="0 0 43 55" fill="none">
  <path d="M21.499 0.5C27.066 0.506362 32.4038 2.72991 36.3408 6.68262C40.1548 10.5119 42.3529 15.6614 42.4922 21.0625L42.499 21.5859C42.4987 30.6468 37.7 38.6379 32.7412 44.4697C27.7892 50.2937 22.7327 53.8993 22.334 54.1787H22.333C22.0886 54.3506 21.798 54.4433 21.5 54.4434C21.2019 54.4434 20.9105 54.3507 20.666 54.1787H20.665C20.2663 53.8993 15.2098 50.2937 10.2578 44.4697C5.29906 38.6379 0.500316 30.6468 0.5 21.5859C0.506317 15.9952 2.7213 10.6354 6.6582 6.68262C10.595 2.73014 15.9324 0.506621 21.499 0.5ZM21.5 13.2363C19.2934 13.2363 17.1769 14.1158 15.6172 15.6816C14.0575 17.2475 13.1817 19.3713 13.1816 21.585C13.1816 23.2358 13.6693 24.8497 14.583 26.2227C15.4968 27.5956 16.7953 28.6667 18.3154 29.2988C19.8356 29.931 21.5091 30.0957 23.123 29.7734C24.7367 29.4511 26.2188 28.6559 27.3818 27.4883C28.5449 26.3206 29.3374 24.833 29.6582 23.2139C29.979 21.5947 29.8139 19.916 29.1846 18.3906C28.5552 16.8653 27.489 15.5612 26.1211 14.6436C24.7533 13.7261 23.1453 13.2364 21.5 13.2363Z" fill="#009733" stroke="white"/>
</svg>